<mxfile host="app.diagrams.net" modified="2022-02-24T20:13:42.900Z" agent="5.0 (Windows NT 10.0; Win64; x64) AppleWebKit/537.36 (KHTML, like Gecko) Chrome/98.0.4758.102 Safari/537.36" etag="rgEFwbmhd3yT3RtYR_yG" version="16.6.3" type="github">
  <diagram id="R2lEEEUBdFMjLlhIrx00" name="Page-1">
    <mxGraphModel dx="1044" dy="574" grid="1" gridSize="10" guides="1" tooltips="1" connect="1" arrows="1" fold="1" page="1" pageScale="1" pageWidth="850" pageHeight="1100" math="0" shadow="0" extFonts="Permanent Marker^https://fonts.googleapis.com/css?family=Permanent+Marker">
      <root>
        <mxCell id="0" />
        <mxCell id="1" parent="0" />
        <mxCell id="WyLXahF0oH_sUy1mbAan-15" value="User" style="whiteSpace=wrap;html=1;align=center;" parent="1" vertex="1">
          <mxGeometry x="105" y="160" width="100" height="40" as="geometry" />
        </mxCell>
        <mxCell id="WyLXahF0oH_sUy1mbAan-16" value="Recipe" style="whiteSpace=wrap;html=1;align=center;" parent="1" vertex="1">
          <mxGeometry x="315" y="160" width="100" height="40" as="geometry" />
        </mxCell>
        <mxCell id="WyLXahF0oH_sUy1mbAan-17" value="Ingredient" style="whiteSpace=wrap;html=1;align=center;" parent="1" vertex="1">
          <mxGeometry x="645" y="210" width="100" height="40" as="geometry" />
        </mxCell>
        <mxCell id="WyLXahF0oH_sUy1mbAan-18" value="Creates" style="shape=rhombus;perimeter=rhombusPerimeter;whiteSpace=wrap;html=1;align=center;" parent="1" vertex="1">
          <mxGeometry x="200" y="60" width="120" height="60" as="geometry" />
        </mxCell>
        <mxCell id="WyLXahF0oH_sUy1mbAan-20" value="Stars" style="shape=rhombus;perimeter=rhombusPerimeter;whiteSpace=wrap;html=1;align=center;" parent="1" vertex="1">
          <mxGeometry x="200" y="240" width="120" height="60" as="geometry" />
        </mxCell>
        <mxCell id="WyLXahF0oH_sUy1mbAan-22" value="Requires" style="shape=rhombus;perimeter=rhombusPerimeter;whiteSpace=wrap;html=1;align=center;" parent="1" vertex="1">
          <mxGeometry x="475" y="200" width="120" height="60" as="geometry" />
        </mxCell>
        <mxCell id="WyLXahF0oH_sUy1mbAan-30" value="" style="endArrow=none;html=1;rounded=0;exitX=0;exitY=0.5;exitDx=0;exitDy=0;entryX=0.5;entryY=1;entryDx=0;entryDy=0;" parent="1" source="WyLXahF0oH_sUy1mbAan-20" target="WyLXahF0oH_sUy1mbAan-15" edge="1">
          <mxGeometry relative="1" as="geometry">
            <mxPoint x="285" y="180" as="sourcePoint" />
            <mxPoint x="445" y="180" as="targetPoint" />
          </mxGeometry>
        </mxCell>
        <mxCell id="WyLXahF0oH_sUy1mbAan-31" value="N" style="resizable=0;html=1;align=right;verticalAlign=bottom;" parent="WyLXahF0oH_sUy1mbAan-30" connectable="0" vertex="1">
          <mxGeometry x="1" relative="1" as="geometry">
            <mxPoint y="20" as="offset" />
          </mxGeometry>
        </mxCell>
        <mxCell id="WyLXahF0oH_sUy1mbAan-32" value="" style="endArrow=none;html=1;rounded=0;entryX=0.5;entryY=1;entryDx=0;entryDy=0;exitX=1;exitY=0.5;exitDx=0;exitDy=0;" parent="1" source="WyLXahF0oH_sUy1mbAan-20" target="WyLXahF0oH_sUy1mbAan-16" edge="1">
          <mxGeometry relative="1" as="geometry">
            <mxPoint x="285" y="180" as="sourcePoint" />
            <mxPoint x="445" y="180" as="targetPoint" />
          </mxGeometry>
        </mxCell>
        <mxCell id="WyLXahF0oH_sUy1mbAan-33" value="M" style="resizable=0;html=1;align=right;verticalAlign=bottom;" parent="WyLXahF0oH_sUy1mbAan-32" connectable="0" vertex="1">
          <mxGeometry x="1" relative="1" as="geometry">
            <mxPoint x="10" y="20" as="offset" />
          </mxGeometry>
        </mxCell>
        <mxCell id="WyLXahF0oH_sUy1mbAan-35" value="" style="endArrow=none;html=1;rounded=0;entryX=0.5;entryY=0;entryDx=0;entryDy=0;exitX=0;exitY=0.5;exitDx=0;exitDy=0;" parent="1" source="WyLXahF0oH_sUy1mbAan-18" target="WyLXahF0oH_sUy1mbAan-15" edge="1">
          <mxGeometry relative="1" as="geometry">
            <mxPoint x="285" y="180" as="sourcePoint" />
            <mxPoint x="445" y="180" as="targetPoint" />
          </mxGeometry>
        </mxCell>
        <mxCell id="WyLXahF0oH_sUy1mbAan-36" value="1" style="resizable=0;html=1;align=right;verticalAlign=bottom;" parent="WyLXahF0oH_sUy1mbAan-35" connectable="0" vertex="1">
          <mxGeometry x="1" relative="1" as="geometry" />
        </mxCell>
        <mxCell id="WyLXahF0oH_sUy1mbAan-37" value="" style="endArrow=none;html=1;rounded=0;exitX=1;exitY=0.5;exitDx=0;exitDy=0;entryX=0.5;entryY=0;entryDx=0;entryDy=0;" parent="1" source="WyLXahF0oH_sUy1mbAan-18" target="WyLXahF0oH_sUy1mbAan-16" edge="1">
          <mxGeometry relative="1" as="geometry">
            <mxPoint x="285" y="180" as="sourcePoint" />
            <mxPoint x="445" y="180" as="targetPoint" />
          </mxGeometry>
        </mxCell>
        <mxCell id="WyLXahF0oH_sUy1mbAan-38" value="N" style="resizable=0;html=1;align=right;verticalAlign=bottom;" parent="WyLXahF0oH_sUy1mbAan-37" connectable="0" vertex="1">
          <mxGeometry x="1" relative="1" as="geometry">
            <mxPoint x="10" as="offset" />
          </mxGeometry>
        </mxCell>
        <mxCell id="WyLXahF0oH_sUy1mbAan-39" value="" style="endArrow=none;html=1;rounded=0;exitX=0;exitY=0.5;exitDx=0;exitDy=0;entryX=1;entryY=0.75;entryDx=0;entryDy=0;" parent="1" source="WyLXahF0oH_sUy1mbAan-22" target="WyLXahF0oH_sUy1mbAan-16" edge="1">
          <mxGeometry relative="1" as="geometry">
            <mxPoint x="285" y="180" as="sourcePoint" />
            <mxPoint x="420" y="190" as="targetPoint" />
          </mxGeometry>
        </mxCell>
        <mxCell id="WyLXahF0oH_sUy1mbAan-40" value="N" style="resizable=0;html=1;align=right;verticalAlign=bottom;" parent="WyLXahF0oH_sUy1mbAan-39" connectable="0" vertex="1">
          <mxGeometry x="1" relative="1" as="geometry">
            <mxPoint x="12" y="30" as="offset" />
          </mxGeometry>
        </mxCell>
        <mxCell id="WyLXahF0oH_sUy1mbAan-45" value="" style="endArrow=none;html=1;rounded=0;exitX=1;exitY=0.5;exitDx=0;exitDy=0;entryX=0;entryY=0.5;entryDx=0;entryDy=0;" parent="1" source="WyLXahF0oH_sUy1mbAan-22" target="WyLXahF0oH_sUy1mbAan-17" edge="1">
          <mxGeometry relative="1" as="geometry">
            <mxPoint x="585" y="80" as="sourcePoint" />
            <mxPoint x="745" y="80" as="targetPoint" />
          </mxGeometry>
        </mxCell>
        <mxCell id="WyLXahF0oH_sUy1mbAan-46" value="M" style="resizable=0;html=1;align=right;verticalAlign=bottom;" parent="WyLXahF0oH_sUy1mbAan-45" connectable="0" vertex="1">
          <mxGeometry x="1" relative="1" as="geometry">
            <mxPoint x="-5" y="19" as="offset" />
          </mxGeometry>
        </mxCell>
        <mxCell id="WyLXahF0oH_sUy1mbAan-137" value="Recipe" style="shape=table;startSize=30;container=1;collapsible=0;childLayout=tableLayout;fontStyle=1" parent="1" vertex="1">
          <mxGeometry x="265" y="320" width="200" height="271" as="geometry" />
        </mxCell>
        <mxCell id="WyLXahF0oH_sUy1mbAan-138" value="" style="shape=tableRow;horizontal=0;startSize=0;swimlaneHead=0;swimlaneBody=0;top=0;left=0;bottom=0;right=0;collapsible=0;dropTarget=0;fillColor=none;points=[[0,0.5],[1,0.5]];portConstraint=eastwest;" parent="WyLXahF0oH_sUy1mbAan-137" vertex="1">
          <mxGeometry y="30" width="200" height="27" as="geometry" />
        </mxCell>
        <mxCell id="WyLXahF0oH_sUy1mbAan-139" value="&lt;b&gt;Field&lt;/b&gt;" style="shape=partialRectangle;html=1;whiteSpace=wrap;connectable=0;overflow=hidden;fillColor=none;top=0;left=0;bottom=0;right=0;pointerEvents=1;" parent="WyLXahF0oH_sUy1mbAan-138" vertex="1">
          <mxGeometry width="100" height="27" as="geometry">
            <mxRectangle width="100" height="27" as="alternateBounds" />
          </mxGeometry>
        </mxCell>
        <mxCell id="WyLXahF0oH_sUy1mbAan-140" value="&lt;b&gt;Type&lt;/b&gt;" style="shape=partialRectangle;html=1;whiteSpace=wrap;connectable=0;overflow=hidden;fillColor=none;top=0;left=0;bottom=0;right=0;pointerEvents=1;" parent="WyLXahF0oH_sUy1mbAan-138" vertex="1">
          <mxGeometry x="100" width="100" height="27" as="geometry">
            <mxRectangle width="100" height="27" as="alternateBounds" />
          </mxGeometry>
        </mxCell>
        <mxCell id="WyLXahF0oH_sUy1mbAan-141" value="" style="shape=tableRow;horizontal=0;startSize=0;swimlaneHead=0;swimlaneBody=0;top=0;left=0;bottom=0;right=0;collapsible=0;dropTarget=0;fillColor=none;points=[[0,0.5],[1,0.5]];portConstraint=eastwest;" parent="WyLXahF0oH_sUy1mbAan-137" vertex="1">
          <mxGeometry y="57" width="200" height="26" as="geometry" />
        </mxCell>
        <mxCell id="WyLXahF0oH_sUy1mbAan-142" value="Title" style="shape=partialRectangle;html=1;whiteSpace=wrap;connectable=0;overflow=hidden;fillColor=none;top=0;left=0;bottom=0;right=0;pointerEvents=1;" parent="WyLXahF0oH_sUy1mbAan-141" vertex="1">
          <mxGeometry width="100" height="26" as="geometry">
            <mxRectangle width="100" height="26" as="alternateBounds" />
          </mxGeometry>
        </mxCell>
        <mxCell id="WyLXahF0oH_sUy1mbAan-143" value="char(128)" style="shape=partialRectangle;html=1;whiteSpace=wrap;connectable=0;overflow=hidden;fillColor=none;top=0;left=0;bottom=0;right=0;pointerEvents=1;" parent="WyLXahF0oH_sUy1mbAan-141" vertex="1">
          <mxGeometry x="100" width="100" height="26" as="geometry">
            <mxRectangle width="100" height="26" as="alternateBounds" />
          </mxGeometry>
        </mxCell>
        <mxCell id="WyLXahF0oH_sUy1mbAan-144" value="" style="shape=tableRow;horizontal=0;startSize=0;swimlaneHead=0;swimlaneBody=0;top=0;left=0;bottom=0;right=0;collapsible=0;dropTarget=0;fillColor=none;points=[[0,0.5],[1,0.5]];portConstraint=eastwest;" parent="WyLXahF0oH_sUy1mbAan-137" vertex="1">
          <mxGeometry y="83" width="200" height="27" as="geometry" />
        </mxCell>
        <mxCell id="WyLXahF0oH_sUy1mbAan-145" value="Steps" style="shape=partialRectangle;html=1;whiteSpace=wrap;connectable=0;overflow=hidden;fillColor=none;top=0;left=0;bottom=0;right=0;pointerEvents=1;" parent="WyLXahF0oH_sUy1mbAan-144" vertex="1">
          <mxGeometry width="100" height="27" as="geometry">
            <mxRectangle width="100" height="27" as="alternateBounds" />
          </mxGeometry>
        </mxCell>
        <mxCell id="WyLXahF0oH_sUy1mbAan-146" value="char(2048)" style="shape=partialRectangle;html=1;whiteSpace=wrap;connectable=0;overflow=hidden;fillColor=none;top=0;left=0;bottom=0;right=0;pointerEvents=1;" parent="WyLXahF0oH_sUy1mbAan-144" vertex="1">
          <mxGeometry x="100" width="100" height="27" as="geometry">
            <mxRectangle width="100" height="27" as="alternateBounds" />
          </mxGeometry>
        </mxCell>
        <mxCell id="WyLXahF0oH_sUy1mbAan-147" value="" style="shape=tableRow;horizontal=0;startSize=0;swimlaneHead=0;swimlaneBody=0;top=0;left=0;bottom=0;right=0;collapsible=0;dropTarget=0;fillColor=none;points=[[0,0.5],[1,0.5]];portConstraint=eastwest;" parent="WyLXahF0oH_sUy1mbAan-137" vertex="1">
          <mxGeometry y="110" width="200" height="27" as="geometry" />
        </mxCell>
        <mxCell id="WyLXahF0oH_sUy1mbAan-148" value="PrepTime" style="shape=partialRectangle;html=1;whiteSpace=wrap;connectable=0;overflow=hidden;fillColor=none;top=0;left=0;bottom=0;right=0;pointerEvents=1;" parent="WyLXahF0oH_sUy1mbAan-147" vertex="1">
          <mxGeometry width="100" height="27" as="geometry">
            <mxRectangle width="100" height="27" as="alternateBounds" />
          </mxGeometry>
        </mxCell>
        <mxCell id="WyLXahF0oH_sUy1mbAan-149" value="int" style="shape=partialRectangle;html=1;whiteSpace=wrap;connectable=0;overflow=hidden;fillColor=none;top=0;left=0;bottom=0;right=0;pointerEvents=1;" parent="WyLXahF0oH_sUy1mbAan-147" vertex="1">
          <mxGeometry x="100" width="100" height="27" as="geometry">
            <mxRectangle width="100" height="27" as="alternateBounds" />
          </mxGeometry>
        </mxCell>
        <mxCell id="WyLXahF0oH_sUy1mbAan-150" value="" style="shape=tableRow;horizontal=0;startSize=0;swimlaneHead=0;swimlaneBody=0;top=0;left=0;bottom=0;right=0;collapsible=0;dropTarget=0;fillColor=none;points=[[0,0.5],[1,0.5]];portConstraint=eastwest;" parent="WyLXahF0oH_sUy1mbAan-137" vertex="1">
          <mxGeometry y="137" width="200" height="26" as="geometry" />
        </mxCell>
        <mxCell id="WyLXahF0oH_sUy1mbAan-151" value="CookTime" style="shape=partialRectangle;html=1;whiteSpace=wrap;connectable=0;overflow=hidden;fillColor=none;top=0;left=0;bottom=0;right=0;pointerEvents=1;" parent="WyLXahF0oH_sUy1mbAan-150" vertex="1">
          <mxGeometry width="100" height="26" as="geometry">
            <mxRectangle width="100" height="26" as="alternateBounds" />
          </mxGeometry>
        </mxCell>
        <mxCell id="WyLXahF0oH_sUy1mbAan-152" value="int" style="shape=partialRectangle;html=1;whiteSpace=wrap;connectable=0;overflow=hidden;fillColor=none;top=0;left=0;bottom=0;right=0;pointerEvents=1;" parent="WyLXahF0oH_sUy1mbAan-150" vertex="1">
          <mxGeometry x="100" width="100" height="26" as="geometry">
            <mxRectangle width="100" height="26" as="alternateBounds" />
          </mxGeometry>
        </mxCell>
        <mxCell id="WyLXahF0oH_sUy1mbAan-153" value="" style="shape=tableRow;horizontal=0;startSize=0;swimlaneHead=0;swimlaneBody=0;top=0;left=0;bottom=0;right=0;collapsible=0;dropTarget=0;fillColor=none;points=[[0,0.5],[1,0.5]];portConstraint=eastwest;" parent="WyLXahF0oH_sUy1mbAan-137" vertex="1">
          <mxGeometry y="163" width="200" height="27" as="geometry" />
        </mxCell>
        <mxCell id="WyLXahF0oH_sUy1mbAan-154" value="Servings" style="shape=partialRectangle;html=1;whiteSpace=wrap;connectable=0;overflow=hidden;fillColor=none;top=0;left=0;bottom=0;right=0;pointerEvents=1;" parent="WyLXahF0oH_sUy1mbAan-153" vertex="1">
          <mxGeometry width="100" height="27" as="geometry">
            <mxRectangle width="100" height="27" as="alternateBounds" />
          </mxGeometry>
        </mxCell>
        <mxCell id="WyLXahF0oH_sUy1mbAan-155" value="int" style="shape=partialRectangle;html=1;whiteSpace=wrap;connectable=0;overflow=hidden;fillColor=none;top=0;left=0;bottom=0;right=0;pointerEvents=1;" parent="WyLXahF0oH_sUy1mbAan-153" vertex="1">
          <mxGeometry x="100" width="100" height="27" as="geometry">
            <mxRectangle width="100" height="27" as="alternateBounds" />
          </mxGeometry>
        </mxCell>
        <mxCell id="WyLXahF0oH_sUy1mbAan-232" style="shape=tableRow;horizontal=0;startSize=0;swimlaneHead=0;swimlaneBody=0;top=0;left=0;bottom=0;right=0;collapsible=0;dropTarget=0;fillColor=none;points=[[0,0.5],[1,0.5]];portConstraint=eastwest;" parent="WyLXahF0oH_sUy1mbAan-137" vertex="1">
          <mxGeometry y="190" width="200" height="27" as="geometry" />
        </mxCell>
        <mxCell id="WyLXahF0oH_sUy1mbAan-233" value="Picture" style="shape=partialRectangle;html=1;whiteSpace=wrap;connectable=0;overflow=hidden;fillColor=none;top=0;left=0;bottom=0;right=0;pointerEvents=1;" parent="WyLXahF0oH_sUy1mbAan-232" vertex="1">
          <mxGeometry width="100" height="27" as="geometry">
            <mxRectangle width="100" height="27" as="alternateBounds" />
          </mxGeometry>
        </mxCell>
        <mxCell id="WyLXahF0oH_sUy1mbAan-234" value="image" style="shape=partialRectangle;html=1;whiteSpace=wrap;connectable=0;overflow=hidden;fillColor=none;top=0;left=0;bottom=0;right=0;pointerEvents=1;" parent="WyLXahF0oH_sUy1mbAan-232" vertex="1">
          <mxGeometry x="100" width="100" height="27" as="geometry">
            <mxRectangle width="100" height="27" as="alternateBounds" />
          </mxGeometry>
        </mxCell>
        <mxCell id="WyLXahF0oH_sUy1mbAan-241" style="shape=tableRow;horizontal=0;startSize=0;swimlaneHead=0;swimlaneBody=0;top=0;left=0;bottom=0;right=0;collapsible=0;dropTarget=0;fillColor=none;points=[[0,0.5],[1,0.5]];portConstraint=eastwest;" parent="WyLXahF0oH_sUy1mbAan-137" vertex="1">
          <mxGeometry y="217" width="200" height="27" as="geometry" />
        </mxCell>
        <mxCell id="WyLXahF0oH_sUy1mbAan-242" value="PubDate" style="shape=partialRectangle;html=1;whiteSpace=wrap;connectable=0;overflow=hidden;fillColor=none;top=0;left=0;bottom=0;right=0;pointerEvents=1;" parent="WyLXahF0oH_sUy1mbAan-241" vertex="1">
          <mxGeometry width="100" height="27" as="geometry">
            <mxRectangle width="100" height="27" as="alternateBounds" />
          </mxGeometry>
        </mxCell>
        <mxCell id="WyLXahF0oH_sUy1mbAan-243" value="datetime" style="shape=partialRectangle;html=1;whiteSpace=wrap;connectable=0;overflow=hidden;fillColor=none;top=0;left=0;bottom=0;right=0;pointerEvents=1;" parent="WyLXahF0oH_sUy1mbAan-241" vertex="1">
          <mxGeometry x="100" width="100" height="27" as="geometry">
            <mxRectangle width="100" height="27" as="alternateBounds" />
          </mxGeometry>
        </mxCell>
        <mxCell id="WyLXahF0oH_sUy1mbAan-217" style="shape=tableRow;horizontal=0;startSize=0;swimlaneHead=0;swimlaneBody=0;top=0;left=0;bottom=0;right=0;collapsible=0;dropTarget=0;fillColor=none;points=[[0,0.5],[1,0.5]];portConstraint=eastwest;" parent="WyLXahF0oH_sUy1mbAan-137" vertex="1">
          <mxGeometry y="244" width="200" height="27" as="geometry" />
        </mxCell>
        <mxCell id="WyLXahF0oH_sUy1mbAan-218" value="Stars" style="shape=partialRectangle;html=1;whiteSpace=wrap;connectable=0;overflow=hidden;fillColor=none;top=0;left=0;bottom=0;right=0;pointerEvents=1;" parent="WyLXahF0oH_sUy1mbAan-217" vertex="1">
          <mxGeometry width="100" height="27" as="geometry">
            <mxRectangle width="100" height="27" as="alternateBounds" />
          </mxGeometry>
        </mxCell>
        <mxCell id="WyLXahF0oH_sUy1mbAan-219" value="int" style="shape=partialRectangle;html=1;whiteSpace=wrap;connectable=0;overflow=hidden;fillColor=none;top=0;left=0;bottom=0;right=0;pointerEvents=1;" parent="WyLXahF0oH_sUy1mbAan-217" vertex="1">
          <mxGeometry x="100" width="100" height="27" as="geometry">
            <mxRectangle width="100" height="27" as="alternateBounds" />
          </mxGeometry>
        </mxCell>
        <mxCell id="WyLXahF0oH_sUy1mbAan-156" value="Category" style="shape=table;startSize=30;container=1;collapsible=0;childLayout=tableLayout;fontStyle=1" parent="1" vertex="1">
          <mxGeometry x="595" y="320" width="200" height="83" as="geometry" />
        </mxCell>
        <mxCell id="WyLXahF0oH_sUy1mbAan-157" value="" style="shape=tableRow;horizontal=0;startSize=0;swimlaneHead=0;swimlaneBody=0;top=0;left=0;bottom=0;right=0;collapsible=0;dropTarget=0;fillColor=none;points=[[0,0.5],[1,0.5]];portConstraint=eastwest;" parent="WyLXahF0oH_sUy1mbAan-156" vertex="1">
          <mxGeometry y="30" width="200" height="27" as="geometry" />
        </mxCell>
        <mxCell id="WyLXahF0oH_sUy1mbAan-158" value="&lt;b&gt;Field&lt;/b&gt;" style="shape=partialRectangle;html=1;whiteSpace=wrap;connectable=0;overflow=hidden;fillColor=none;top=0;left=0;bottom=0;right=0;pointerEvents=1;" parent="WyLXahF0oH_sUy1mbAan-157" vertex="1">
          <mxGeometry width="100" height="27" as="geometry">
            <mxRectangle width="100" height="27" as="alternateBounds" />
          </mxGeometry>
        </mxCell>
        <mxCell id="WyLXahF0oH_sUy1mbAan-159" value="&lt;b&gt;Type&lt;/b&gt;" style="shape=partialRectangle;html=1;whiteSpace=wrap;connectable=0;overflow=hidden;fillColor=none;top=0;left=0;bottom=0;right=0;pointerEvents=1;" parent="WyLXahF0oH_sUy1mbAan-157" vertex="1">
          <mxGeometry x="100" width="100" height="27" as="geometry">
            <mxRectangle width="100" height="27" as="alternateBounds" />
          </mxGeometry>
        </mxCell>
        <mxCell id="WyLXahF0oH_sUy1mbAan-160" value="" style="shape=tableRow;horizontal=0;startSize=0;swimlaneHead=0;swimlaneBody=0;top=0;left=0;bottom=0;right=0;collapsible=0;dropTarget=0;fillColor=none;points=[[0,0.5],[1,0.5]];portConstraint=eastwest;" parent="WyLXahF0oH_sUy1mbAan-156" vertex="1">
          <mxGeometry y="57" width="200" height="26" as="geometry" />
        </mxCell>
        <mxCell id="WyLXahF0oH_sUy1mbAan-161" value="Name" style="shape=partialRectangle;html=1;whiteSpace=wrap;connectable=0;overflow=hidden;fillColor=none;top=0;left=0;bottom=0;right=0;pointerEvents=1;" parent="WyLXahF0oH_sUy1mbAan-160" vertex="1">
          <mxGeometry width="100" height="26" as="geometry">
            <mxRectangle width="100" height="26" as="alternateBounds" />
          </mxGeometry>
        </mxCell>
        <mxCell id="WyLXahF0oH_sUy1mbAan-162" value="char(128)" style="shape=partialRectangle;html=1;whiteSpace=wrap;connectable=0;overflow=hidden;fillColor=none;top=0;left=0;bottom=0;right=0;pointerEvents=1;" parent="WyLXahF0oH_sUy1mbAan-160" vertex="1">
          <mxGeometry x="100" width="100" height="26" as="geometry">
            <mxRectangle width="100" height="26" as="alternateBounds" />
          </mxGeometry>
        </mxCell>
        <mxCell id="WyLXahF0oH_sUy1mbAan-175" value="User" style="shape=table;startSize=30;container=1;collapsible=0;childLayout=tableLayout;fontStyle=1" parent="1" vertex="1">
          <mxGeometry x="55" y="320" width="200" height="163" as="geometry" />
        </mxCell>
        <mxCell id="WyLXahF0oH_sUy1mbAan-176" value="" style="shape=tableRow;horizontal=0;startSize=0;swimlaneHead=0;swimlaneBody=0;top=0;left=0;bottom=0;right=0;collapsible=0;dropTarget=0;fillColor=none;points=[[0,0.5],[1,0.5]];portConstraint=eastwest;" parent="WyLXahF0oH_sUy1mbAan-175" vertex="1">
          <mxGeometry y="30" width="200" height="27" as="geometry" />
        </mxCell>
        <mxCell id="WyLXahF0oH_sUy1mbAan-177" value="&lt;b&gt;Field&lt;/b&gt;" style="shape=partialRectangle;html=1;whiteSpace=wrap;connectable=0;overflow=hidden;fillColor=none;top=0;left=0;bottom=0;right=0;pointerEvents=1;" parent="WyLXahF0oH_sUy1mbAan-176" vertex="1">
          <mxGeometry width="100" height="27" as="geometry">
            <mxRectangle width="100" height="27" as="alternateBounds" />
          </mxGeometry>
        </mxCell>
        <mxCell id="WyLXahF0oH_sUy1mbAan-178" value="&lt;b&gt;Type&lt;/b&gt;" style="shape=partialRectangle;html=1;whiteSpace=wrap;connectable=0;overflow=hidden;fillColor=none;top=0;left=0;bottom=0;right=0;pointerEvents=1;" parent="WyLXahF0oH_sUy1mbAan-176" vertex="1">
          <mxGeometry x="100" width="100" height="27" as="geometry">
            <mxRectangle width="100" height="27" as="alternateBounds" />
          </mxGeometry>
        </mxCell>
        <mxCell id="WyLXahF0oH_sUy1mbAan-277" style="shape=tableRow;horizontal=0;startSize=0;swimlaneHead=0;swimlaneBody=0;top=0;left=0;bottom=0;right=0;collapsible=0;dropTarget=0;fillColor=none;points=[[0,0.5],[1,0.5]];portConstraint=eastwest;" parent="WyLXahF0oH_sUy1mbAan-175" vertex="1">
          <mxGeometry y="57" width="200" height="26" as="geometry" />
        </mxCell>
        <mxCell id="WyLXahF0oH_sUy1mbAan-278" value="Email" style="shape=partialRectangle;html=1;whiteSpace=wrap;connectable=0;overflow=hidden;fillColor=none;top=0;left=0;bottom=0;right=0;pointerEvents=1;" parent="WyLXahF0oH_sUy1mbAan-277" vertex="1">
          <mxGeometry width="100" height="26" as="geometry">
            <mxRectangle width="100" height="26" as="alternateBounds" />
          </mxGeometry>
        </mxCell>
        <mxCell id="WyLXahF0oH_sUy1mbAan-279" value="char(254)" style="shape=partialRectangle;html=1;whiteSpace=wrap;connectable=0;overflow=hidden;fillColor=none;top=0;left=0;bottom=0;right=0;pointerEvents=1;" parent="WyLXahF0oH_sUy1mbAan-277" vertex="1">
          <mxGeometry x="100" width="100" height="26" as="geometry">
            <mxRectangle width="100" height="26" as="alternateBounds" />
          </mxGeometry>
        </mxCell>
        <mxCell id="WyLXahF0oH_sUy1mbAan-179" value="" style="shape=tableRow;horizontal=0;startSize=0;swimlaneHead=0;swimlaneBody=0;top=0;left=0;bottom=0;right=0;collapsible=0;dropTarget=0;fillColor=none;points=[[0,0.5],[1,0.5]];portConstraint=eastwest;" parent="WyLXahF0oH_sUy1mbAan-175" vertex="1">
          <mxGeometry y="83" width="200" height="26" as="geometry" />
        </mxCell>
        <mxCell id="WyLXahF0oH_sUy1mbAan-180" value="Username" style="shape=partialRectangle;html=1;whiteSpace=wrap;connectable=0;overflow=hidden;fillColor=none;top=0;left=0;bottom=0;right=0;pointerEvents=1;" parent="WyLXahF0oH_sUy1mbAan-179" vertex="1">
          <mxGeometry width="100" height="26" as="geometry">
            <mxRectangle width="100" height="26" as="alternateBounds" />
          </mxGeometry>
        </mxCell>
        <mxCell id="WyLXahF0oH_sUy1mbAan-181" value="char(128)" style="shape=partialRectangle;html=1;whiteSpace=wrap;connectable=0;overflow=hidden;fillColor=none;top=0;left=0;bottom=0;right=0;pointerEvents=1;" parent="WyLXahF0oH_sUy1mbAan-179" vertex="1">
          <mxGeometry x="100" width="100" height="26" as="geometry">
            <mxRectangle width="100" height="26" as="alternateBounds" />
          </mxGeometry>
        </mxCell>
        <mxCell id="WyLXahF0oH_sUy1mbAan-182" value="" style="shape=tableRow;horizontal=0;startSize=0;swimlaneHead=0;swimlaneBody=0;top=0;left=0;bottom=0;right=0;collapsible=0;dropTarget=0;fillColor=none;points=[[0,0.5],[1,0.5]];portConstraint=eastwest;" parent="WyLXahF0oH_sUy1mbAan-175" vertex="1">
          <mxGeometry y="109" width="200" height="27" as="geometry" />
        </mxCell>
        <mxCell id="WyLXahF0oH_sUy1mbAan-183" value="Password" style="shape=partialRectangle;html=1;whiteSpace=wrap;connectable=0;overflow=hidden;fillColor=none;top=0;left=0;bottom=0;right=0;pointerEvents=1;" parent="WyLXahF0oH_sUy1mbAan-182" vertex="1">
          <mxGeometry width="100" height="27" as="geometry">
            <mxRectangle width="100" height="27" as="alternateBounds" />
          </mxGeometry>
        </mxCell>
        <mxCell id="WyLXahF0oH_sUy1mbAan-184" value="char(128)" style="shape=partialRectangle;html=1;whiteSpace=wrap;connectable=0;overflow=hidden;fillColor=none;top=0;left=0;bottom=0;right=0;pointerEvents=1;" parent="WyLXahF0oH_sUy1mbAan-182" vertex="1">
          <mxGeometry x="100" width="100" height="27" as="geometry">
            <mxRectangle width="100" height="27" as="alternateBounds" />
          </mxGeometry>
        </mxCell>
        <mxCell id="WyLXahF0oH_sUy1mbAan-191" value="" style="shape=tableRow;horizontal=0;startSize=0;swimlaneHead=0;swimlaneBody=0;top=0;left=0;bottom=0;right=0;collapsible=0;dropTarget=0;fillColor=none;points=[[0,0.5],[1,0.5]];portConstraint=eastwest;" parent="WyLXahF0oH_sUy1mbAan-175" vertex="1">
          <mxGeometry y="136" width="200" height="27" as="geometry" />
        </mxCell>
        <mxCell id="WyLXahF0oH_sUy1mbAan-192" value="ProfilePicture" style="shape=partialRectangle;html=1;whiteSpace=wrap;connectable=0;overflow=hidden;fillColor=none;top=0;left=0;bottom=0;right=0;pointerEvents=1;" parent="WyLXahF0oH_sUy1mbAan-191" vertex="1">
          <mxGeometry width="100" height="27" as="geometry">
            <mxRectangle width="100" height="27" as="alternateBounds" />
          </mxGeometry>
        </mxCell>
        <mxCell id="WyLXahF0oH_sUy1mbAan-193" value="image" style="shape=partialRectangle;html=1;whiteSpace=wrap;connectable=0;overflow=hidden;fillColor=none;top=0;left=0;bottom=0;right=0;pointerEvents=1;" parent="WyLXahF0oH_sUy1mbAan-191" vertex="1">
          <mxGeometry x="100" width="100" height="27" as="geometry">
            <mxRectangle width="100" height="27" as="alternateBounds" />
          </mxGeometry>
        </mxCell>
        <mxCell id="WyLXahF0oH_sUy1mbAan-244" value="Category" style="whiteSpace=wrap;html=1;align=center;" parent="1" vertex="1">
          <mxGeometry x="645" y="100" width="100" height="40" as="geometry" />
        </mxCell>
        <mxCell id="WyLXahF0oH_sUy1mbAan-245" value="FallsUnder" style="shape=rhombus;perimeter=rhombusPerimeter;whiteSpace=wrap;html=1;align=center;" parent="1" vertex="1">
          <mxGeometry x="475" y="90" width="120" height="60" as="geometry" />
        </mxCell>
        <mxCell id="WyLXahF0oH_sUy1mbAan-246" value="" style="endArrow=none;html=1;rounded=0;exitX=1;exitY=0.5;exitDx=0;exitDy=0;entryX=0;entryY=0.5;entryDx=0;entryDy=0;" parent="1" source="WyLXahF0oH_sUy1mbAan-245" target="WyLXahF0oH_sUy1mbAan-244" edge="1">
          <mxGeometry relative="1" as="geometry">
            <mxPoint x="610" y="110" as="sourcePoint" />
            <mxPoint x="770" y="110" as="targetPoint" />
          </mxGeometry>
        </mxCell>
        <mxCell id="WyLXahF0oH_sUy1mbAan-247" value="M" style="resizable=0;html=1;align=right;verticalAlign=bottom;" parent="WyLXahF0oH_sUy1mbAan-246" connectable="0" vertex="1">
          <mxGeometry x="1" relative="1" as="geometry">
            <mxPoint x="-4" as="offset" />
          </mxGeometry>
        </mxCell>
        <mxCell id="WyLXahF0oH_sUy1mbAan-248" value="" style="endArrow=none;html=1;rounded=0;exitX=1;exitY=0.25;exitDx=0;exitDy=0;entryX=0;entryY=0.5;entryDx=0;entryDy=0;" parent="1" source="WyLXahF0oH_sUy1mbAan-16" target="WyLXahF0oH_sUy1mbAan-245" edge="1">
          <mxGeometry relative="1" as="geometry">
            <mxPoint x="410" y="300" as="sourcePoint" />
            <mxPoint x="570" y="300" as="targetPoint" />
          </mxGeometry>
        </mxCell>
        <mxCell id="WyLXahF0oH_sUy1mbAan-249" value="N" style="resizable=0;html=1;align=right;verticalAlign=bottom;" parent="WyLXahF0oH_sUy1mbAan-248" connectable="0" vertex="1">
          <mxGeometry x="1" relative="1" as="geometry">
            <mxPoint x="-48" y="40" as="offset" />
          </mxGeometry>
        </mxCell>
        <mxCell id="WyLXahF0oH_sUy1mbAan-251" value="Ingredient" style="shape=table;startSize=30;container=1;collapsible=0;childLayout=tableLayout;fontStyle=1" parent="1" vertex="1">
          <mxGeometry x="595" y="426" width="200" height="110" as="geometry" />
        </mxCell>
        <mxCell id="WyLXahF0oH_sUy1mbAan-252" value="" style="shape=tableRow;horizontal=0;startSize=0;swimlaneHead=0;swimlaneBody=0;top=0;left=0;bottom=0;right=0;collapsible=0;dropTarget=0;fillColor=none;points=[[0,0.5],[1,0.5]];portConstraint=eastwest;" parent="WyLXahF0oH_sUy1mbAan-251" vertex="1">
          <mxGeometry y="30" width="200" height="27" as="geometry" />
        </mxCell>
        <mxCell id="WyLXahF0oH_sUy1mbAan-253" value="&lt;b&gt;Field&lt;/b&gt;" style="shape=partialRectangle;html=1;whiteSpace=wrap;connectable=0;overflow=hidden;fillColor=none;top=0;left=0;bottom=0;right=0;pointerEvents=1;" parent="WyLXahF0oH_sUy1mbAan-252" vertex="1">
          <mxGeometry width="100" height="27" as="geometry">
            <mxRectangle width="100" height="27" as="alternateBounds" />
          </mxGeometry>
        </mxCell>
        <mxCell id="WyLXahF0oH_sUy1mbAan-254" value="&lt;b&gt;Type&lt;/b&gt;" style="shape=partialRectangle;html=1;whiteSpace=wrap;connectable=0;overflow=hidden;fillColor=none;top=0;left=0;bottom=0;right=0;pointerEvents=1;" parent="WyLXahF0oH_sUy1mbAan-252" vertex="1">
          <mxGeometry x="100" width="100" height="27" as="geometry">
            <mxRectangle width="100" height="27" as="alternateBounds" />
          </mxGeometry>
        </mxCell>
        <mxCell id="WyLXahF0oH_sUy1mbAan-255" value="" style="shape=tableRow;horizontal=0;startSize=0;swimlaneHead=0;swimlaneBody=0;top=0;left=0;bottom=0;right=0;collapsible=0;dropTarget=0;fillColor=none;points=[[0,0.5],[1,0.5]];portConstraint=eastwest;" parent="WyLXahF0oH_sUy1mbAan-251" vertex="1">
          <mxGeometry y="57" width="200" height="26" as="geometry" />
        </mxCell>
        <mxCell id="WyLXahF0oH_sUy1mbAan-256" value="Name" style="shape=partialRectangle;html=1;whiteSpace=wrap;connectable=0;overflow=hidden;fillColor=none;top=0;left=0;bottom=0;right=0;pointerEvents=1;" parent="WyLXahF0oH_sUy1mbAan-255" vertex="1">
          <mxGeometry width="100" height="26" as="geometry">
            <mxRectangle width="100" height="26" as="alternateBounds" />
          </mxGeometry>
        </mxCell>
        <mxCell id="WyLXahF0oH_sUy1mbAan-257" value="char(128)" style="shape=partialRectangle;html=1;whiteSpace=wrap;connectable=0;overflow=hidden;fillColor=none;top=0;left=0;bottom=0;right=0;pointerEvents=1;" parent="WyLXahF0oH_sUy1mbAan-255" vertex="1">
          <mxGeometry x="100" width="100" height="26" as="geometry">
            <mxRectangle width="100" height="26" as="alternateBounds" />
          </mxGeometry>
        </mxCell>
        <mxCell id="WyLXahF0oH_sUy1mbAan-258" value="" style="shape=tableRow;horizontal=0;startSize=0;swimlaneHead=0;swimlaneBody=0;top=0;left=0;bottom=0;right=0;collapsible=0;dropTarget=0;fillColor=none;points=[[0,0.5],[1,0.5]];portConstraint=eastwest;" parent="WyLXahF0oH_sUy1mbAan-251" vertex="1">
          <mxGeometry y="83" width="200" height="27" as="geometry" />
        </mxCell>
        <mxCell id="WyLXahF0oH_sUy1mbAan-259" value="Type" style="shape=partialRectangle;html=1;whiteSpace=wrap;connectable=0;overflow=hidden;fillColor=none;top=0;left=0;bottom=0;right=0;pointerEvents=1;" parent="WyLXahF0oH_sUy1mbAan-258" vertex="1">
          <mxGeometry width="100" height="27" as="geometry">
            <mxRectangle width="100" height="27" as="alternateBounds" />
          </mxGeometry>
        </mxCell>
        <mxCell id="WyLXahF0oH_sUy1mbAan-260" value="char(128)" style="shape=partialRectangle;html=1;whiteSpace=wrap;connectable=0;overflow=hidden;fillColor=none;top=0;left=0;bottom=0;right=0;pointerEvents=1;" parent="WyLXahF0oH_sUy1mbAan-258" vertex="1">
          <mxGeometry x="100" width="100" height="27" as="geometry">
            <mxRectangle width="100" height="27" as="alternateBounds" />
          </mxGeometry>
        </mxCell>
      </root>
    </mxGraphModel>
  </diagram>
</mxfile>
